#!OML:ASF E:/inclinewalkrobotboard/Project1/Captureday1/Session1/subject1.ASF
:FULLY-SPECIFIED
:DEGREES
338
root 0 0 0 1.772553970176713 -10.903391943023085 0.8493273342620242
lowerback -0.18472463104781878 -1.6135725032078985 -2.6395704607324766
upperback -0.6642166574925028 -2.1167468648084773 1.723002005985098
thorax -0.3885864225147435 -1.0346955529543873 3.208321572382008
lowerneck -24.623499875211593 -1.638895880990547 -7.717482580578324
upperneck 28.680872037521894 0.3571198321875574 1.8579254163070125
head 13.792338660829085 -0.6083930213594646 2.2135701123753915
rclavicle -8.321181509678058E-15 9.870065127736066E-16
rhumerus -31.811263060778025 -2.4512909890078083 -81.19082193522515
rradius 30.940130846725058
rwrist 19.08872076437185
rhand -17.981486751768482 9.024733610075273
rfingers 7.125019999999933
rthumb 8.285245620053447 -20.81463268036759
lclavicle -2.7220430164438645E-15 7.121749851754684E-16
lhumerus -19.220371199082823 -1.3856108126813949 90.39374131511444
lradius 64.06651125972144
lwrist 1.3798115659845922
lhand -28.80124965101804 20.547012364746127
lfingers 7.125020000000025
lthumb -2.1505089719838573 50.51005306107726
rfemur -9.981765846145134 1.5681648803593689 22.56987445733877
rtibia 68.35870915580239
rfoot 5.947098351709407 -3.3028393864482197
rtoes 11.290049530046986
lfemur -17.42150116594607 -2.94398704692571 -21.291266543994183
ltibia 32.12919827754679
lfoot -4.053470994977103 -3.997439199097232
ltoes 9.517026986643922
339
root 0 0 0 1.805932985562337 -10.88370951385077 0.8590921719895324
lowerback -0.19093097305918594 -1.6255643494519894 -2.6699411649080176
upperback -0.622474021881011 -2.133784653305299 1.7084672672253012
thorax -0.3424686999832992 -1.0445825323992959 3.211255659839609
lowerneck -24.58372789123329 -1.6344291664498545 -7.776884632599425
upperneck 28.526750158855478 0.3392904781716731 1.9472526020002805
head 13.712226287278101 -0.5954606621210485 2.2443556647159175
rclavicle -5.453282399945022E-15 1.2716870866854125E-15
rhumerus -32.35257954305463 -4.135057344975059 -80.89702261360236
rradius 30.556568032981986
rwrist 19.594067851095158
rhand -17.60766848682239 8.902712433896518
rfingers 7.125019999999932
rthumb 8.646159508514486 -20.92383117543646
lclavicle -2.074821269615858E-15 1.1471773757579572E-15
lhumerus -19.360948485877675 -2.2215768081204184 90.35038844581521
lradius 64.42557262301568
lwrist 1.7046015595599102
lhand -28.664898984378713 20.81742057306414
lfingers 7.125020000000025
lthumb -2.0228361209289636 50.798457160523085
rfemur -15.398456675535598 0.1208351817134492 21.28894286927993
rtibia 72.92752704237577
rfoot 0.4159099343430288 -5.822801507427053
rtoes 8.74748675619007
lfemur -11.705054693228515 -3.220500870131124 -24.62813739331271
ltibia 28.059740814207004
lfoot -9.807354949218242 -1.7586153565853593
ltoes 9.998057707173734
340
root 0 0 0 1.8362553770574686 -10.853110778940305 0.8719374551238731
lowerback -0.19708022494259936 -1.634699925157581 -2.7049168803252623
upperback -0.590727163251798 -2.1466910195379008 1.7104650733678546
thorax -0.30683547339600736 -1.0524186698008542 3.233275513131849
lowerneck -24.591875879797588 -1.6407301898785505 -7.837702007007523
upperneck 28.213378376879156 0.30495249962770143 2.068194738229983
head 13.586466272480253 -0.5830468027695759 2.282709572784941
rclavicle -5.221854847488321E-15 1.080553650523305E-15
rhumerus -32.750220507480556 -4.930980669486901 -80.56315204107104
rradius 30.24337208143336
rwrist 19.921238192651863
rhand -17.4221989256132 8.822432876983646
rfingers 7.125019999999933
rthumb 8.824970858629316 -20.99590638096803
lclavicle -1.6669137698786866E-15 9.760377483620408E-16
lhumerus -19.641013710222353 -3.1262295012159638 90.57483546163127
lradius 64.66631754179409
lwrist 1.8809172342430318
lhand -28.692736911827595 20.955235821501805
lfingers 7.125020000000025
lthumb -2.0534251829333225 50.94425195784566
rfemur -23.53298245897775 -0.8941989758705517 20.58739758591545
rtibia 70.83680203480371
rfoot -3.9899901954082253 -6.827773369235122
rtoes 5.8202202059601245
lfemur -5.983038257436076 -3.5002158737992923 -27.304334585852637
ltibia 23.811167270042752
lfoot -14.662902299322859 0.07632981603143207
ltoes 8.984419127370229
341
root 0 0 0 1.8753963528052198 -10.858929464259159 0.8994335647073525
lowerback -0.2442264721214038 -1.661531577967561 -2.7440163984155643
upperback -0.557582460036549 -2.1823870532735437 1.7115017132504105
thorax -0.24618108283623863 -1.072670392893107 3.25574083123495
lowerneck -24.740762396684357 -1.6679516770947935 -7.913438631574683
upperneck 27.8481119822208 0.25475214995575757 2.1955906586416614
head 13.470449208603027 -0.5746527115802005 2.3228985825913795
rclavicle -5.116682625325351E-15 9.495926149598127E-16
rhumerus -33.04868612416391 -5.094860400912515 -80.19159075930848
rradius 29.9639269828871
rwrist 20.11153695595558
rhand -17.376708998147645 8.789307154395617
rfingers 7.125019999999934
rthumb 8.868982798964229 -21.021696865257148
lclavicle -2.0143549366423015E-15 5.768335107300172E-16
lhumerus -20.19421607120922 -4.22781305998111 90.99183004511833
lradius 64.85486388921198
lwrist 1.9988811874745056
lhand -28.77267686764285 20.968263816986163
lfingers 7.125020000000024
lthumb -2.135347887744426 50.96205038097681
rfemur -27.352517737831008 -0.8373919702576096 20.04612226150803
rtibia 65.87817667509961
rfoot -5.270524125501085 -7.400025918113162
rtoes 3.6691813159490505
lfemur -0.7526401080832694 -3.4754280759329337 -29.108036143050434
ltibia 21.82929583143725
lfoot -17.876332300358634 0.19116482701700743
ltoes 6.294314087430587
342
root 0 0 0 1.920845106040401 -10.902583388547507 0.9332216963515989
lowerback -0.31805614565656715 -1.7030515125669796 -2.775348011153749
upperback -0.5191920639961222 -2.237480134178053 1.705502870608167
thorax -0.16342083516825412 -1.1028838540688994 3.2658012508839227
lowerneck -24.964977454835207 -1.700376639510023 -7.985937161306015
upperneck 27.599189918783956 0.21303794212382443 2.2807965390057827
head 13.414029010285828 -0.570192615063468 2.35139058107173
rclavicle -3.875876907811444E-15 8.532332292464816E-16
rhumerus -33.32427905681068 -5.0619560706802895 -79.78880271056968
rradius 29.668367568133853
rwrist 20.278140730225783
rhand -17.368916506679575 8.77013909006741
rfingers 7.125019999999937
rthumb 8.876522964215855 -21.031189874958116
lclavicle -2.022409570624301E-15 5.511791929538911E-16
lhumerus -20.59458616214398 -5.480397206053371 91.25117389175732
lradius 65.22462205715414
lwrist 2.2288611900949147
lhand -28.77963604047298 21.09919310243256
lfingers 7.125020000000023
lthumb -2.148055889905989 51.10440587032027
rfemur -29.810316945719762 -0.02128211490834353 18.657514323538493
rtibia 57.72933586151058
rfoot -5.503989335347148 -8.499712709174789
rtoes 1.2090475669635312
lfemur 3.082187955496057 -3.2536004991296856 -30.200181752041274
ltibia 20.99949849796845
lfoot -19.668942833710894 -0.27760220058224494
ltoes 3.664389034559475
